<svg width="500" height="501" viewBox="0 0 500 501" fill="none" xmlns="http://www.w3.org/2000/svg">
<path fill-rule="evenodd" clip-rule="evenodd" d="M171.432 0.451172C143.227 0.451172 116.179 11.6554 96.2351 31.599L0 127.834V171.884C0 203.005 13.368 231.004 34.6751 250.451C13.368 269.899 0 297.897 0 329.019V373.069L96.2351 469.304C116.179 489.247 143.227 500.451 171.432 500.451C202.554 500.451 230.553 487.084 250 465.776C269.447 487.084 297.446 500.451 328.568 500.451C356.773 500.451 383.821 489.247 403.765 469.304L500 373.069V329.019C500 297.897 486.633 269.899 465.325 250.451C486.633 231.004 500 203.005 500 171.884V127.834L403.765 31.599C383.821 11.6554 356.773 0.451172 328.568 0.451172C297.446 0.451172 269.447 13.8191 250 35.1263C230.553 13.8191 202.554 0.451172 171.432 0.451172ZM321.985 250.451C320.786 249.357 319.61 248.234 318.458 247.081L250 178.624L181.543 247.081C180.39 248.234 179.214 249.357 178.015 250.451C179.214 251.545 180.39 252.669 181.543 253.821L250 322.279L318.458 253.821C319.61 252.669 320.786 251.545 321.985 250.451ZM277.778 373.069V394.106C277.778 422.156 300.518 444.896 328.568 444.896C342.038 444.896 354.956 439.545 364.481 430.02L444.445 350.056V329.019C444.445 300.969 421.705 278.229 393.655 278.229C380.185 278.229 367.266 283.58 357.741 293.105L277.778 373.069ZM222.222 373.069L142.259 293.105C132.734 283.58 119.815 278.229 106.345 278.229C78.2949 278.229 55.5555 300.969 55.5555 329.019V350.056L135.519 430.02C145.044 439.545 157.962 444.896 171.432 444.896C199.482 444.896 222.222 422.156 222.222 394.106V373.069ZM222.222 106.796V127.834L142.259 207.797C132.734 217.322 119.815 222.674 106.345 222.674C78.2949 222.674 55.5555 199.933 55.5555 171.884V150.846L135.519 70.8826C145.044 61.3578 157.962 56.0068 171.432 56.0068C199.482 56.0068 222.222 78.746 222.222 106.796ZM357.741 207.797L277.778 127.834V106.796C277.778 78.746 300.518 56.0068 328.568 56.0068C342.038 56.0068 354.956 61.3578 364.481 70.8826L444.445 150.846V171.884C444.445 199.933 421.705 222.674 393.655 222.674C380.185 222.674 367.266 217.322 357.741 207.797Z" fill="#3B82F6"/>
</svg>
